<?xml version="1.0" encoding="utf-8"?>
<svg fill="orange" width="24" height="24" xmlns="http://www.w3.org/2000/svg" xmlns:xlink="http://www.w3.org/1999/xlink" version="1.1">
  <defs>
    <symbol viewBox="0 0 864 1664" id="si-awesome-facebook"><path d="M864 12v264H707q-86 0-116 36t-30 108v189h293l-39 296H561v759H255V905H0V609h255V391q0-186 104-288.5T636 0q147 0 228 12z"/></symbol>
    <symbol viewBox="0 0 1505 1536" id="kysi-awesome-google-title"><path d="M768 658h725q12 67 12 128 0 217-91 387.5T1154.5 1440 768 1536q-157 0-299-60.5T224 1312 60.5 1067 0 768t60.5-299T224 224 469 60.5 768 0q300 0 515 201l-209 201Q951 283 768 283q-129 0-238.5 65T356 524.5 292 768t64 243.5T529.5 1188t238.5 65q87 0 160-24t120-60 82-82 51.5-87 22.5-78H768V658z"/></symbol>
    <symbol viewBox="0 0 1536 1536" id="si-awesome-question-circle"><path d="M896 1248v-192q0-14-9-23t-23-9H672q-14 0-23 9t-9 23v192q0 14 9 23t23 9h192q14 0 23-9t9-23zm256-672q0-88-55.5-163T958 297t-170-41q-243 0-371 213-15 24 8 42l132 100q7 6 19 6 16 0 25-12 53-68 86-92 34-24 86-24 48 0 85.5 26t37.5 59q0 38-20 61t-68 45q-63 28-115.5 86.5T640 892v36q0 14 9 23t23 9h192q14 0 23-9t9-23q0-19 21.5-49.5T972 829q32-18 49-28.5t46-35 44.5-48 28-60.5 12.5-81zm384 192q0 209-103 385.5T1153.5 1433 768 1536t-385.5-103T103 1153.5 0 768t103-385.5T382.5 103 768 0t385.5 103T1433 382.5 1536 768z"/></symbol>
    <symbol viewBox="0 0 1024 1024" id="si-ant-info-circle"><path d="M512 0Q373 0 255 68.5T68.5 255 0 512t68.5 257T255 955.5t257 68.5 257-68.5T955.5 769t68.5-257-68.5-257T769 68.5 512 0zm0 192q13 0 22.5 9.5T544 224t-9.5 22.5T512 256t-22.5-9.5T480 224t9.5-22.5T512 192zm96 640H416q-13 0-22.5-9.5T384 800t9.5-22.5T416 768h62V446h-62q-14 0-23-9.5t-9-23 9-22.5 23-9h94q14 0 23 9t9 23v354h66q13 0 22.5 9.5T640 800t-9.5 22.5T608 832z"/></symbol>
    <symbol viewBox="0 0 1010.3333129882812 1024.6666259765625" id="si-ant-aliwangwang"><path d="M971.333 336.667q-37-88-106-157-68-68-157-106-92-39-193-39-84 0-162 27-39-18-85.5-31.5t-83-18.5-71.5-8.5-51-2.5-22 0q-21 1-32 18t-3 36l87 219q-72 118-72 256 0 101 39 193 38 88 106 157 69 68 158 106 92 39 192 39 101 0 193-39 89-37 157-106 69-68 106-157 39-92 39-193t-39-193zm-432 95q0 17-12 29t-29 12-29-12-12-29v-74q0-17 12-29t29-12 29 12 12 29v74zm238 0q0 17-12 29t-29 12-29-12-12-29v-74q0-17 12-29t29-12 29 12 12 29v74z"/></symbol>

    <symbol viewBox="0 0 1024 1024" id="si-ant-frown-circle"><path d="M512 0Q373 0 255 68.5T68.5 255 0 512t68.5 257T255 955.5t257 68.5 257-68.5T955.5 769t68.5-257-68.5-257T769 68.5 512 0zM256 414q0 13-9.5 22.5T224 446t-22.5-9.5T192 414v-64q0-13 9.5-22.5T224 318t22.5 9.5T256 350v64zm480 352q-12 0-21-8t-11-19q-9-62-55-107-57-56-137-56t-137 56q-46 45-55 107-2 12-11 19.5t-21 7.5q-14 0-23.5-11t-7.5-25q12-83 73-144 76-74 182.5-74T694 586q61 60 74 144 2 14-8 25t-24 11zm95-352q0 13-9.5 22.5T799 446t-22.5-9.5T767 414v-64q0-13 9.5-22.5T799 318t22.5 9.5T831 350v64z"/></symbol>
    <symbol viewBox="0 0 1024 1024" id="si-ant-meh-circle"><path d="M512 0Q373 0 255 68.5T68.5 255 0 512t68.5 257T255 955.5t257 68.5 257-68.5T955.5 769t68.5-257-68.5-257T769 68.5 512 0zM256 414q0 13-9.5 22.5T224 446t-22.5-9.5T192 414v-64q0-13 9.5-22.5T224 318t22.5 9.5T256 350v64zm512 194q0 14-9 23t-23 9H288q-13 0-22.5-9t-9.5-23q0-13 9.5-22.5T288 576h448q14 0 23 9.5t9 22.5zm63-194q0 13-9.5 22.5T799 446t-22.5-9.5T767 414v-64q0-13 9.5-22.5T799 318t22.5 9.5T831 350v64z"/></symbol>
    <symbol viewBox="0 0 1024 1024" id="si-ant-smile-circle"><path d="M512 0Q373 0 255 68.5T68.5 255 0 512t68.5 257T255 955.5t257 68.5 257-68.5T955.5 769t68.5-257-68.5-257T769 68.5 512 0zM256 414q0 13-9.5 22.5T224 446t-22.5-9.5T192 414v-64q0-13 9.5-22.5T224 318t22.5 9.5T256 350v64zm511 134q-12 83-73 144-76 74-182 74t-182-74q-61-60-73-144-2-14 7.5-25t23.5-11q12 0 21 8t11 19q9 62 55 107 57 56 137 56t137-56q46-45 55-107 2-12 11-19.5t21-7.5q14 0 24 11t7 25zm64-134q0 13-9.5 22.5T799 446t-22.5-9.5T767 414v-64q0-13 9.5-22.5T799 318t22.5 9.5T831 350v64z"/></symbol>
    <symbol viewBox="0 0 1024 1024" id="si-ant-frown"><path d="M512 64q91 0 174 35 81 34 143 96t96 143q35 83 35 174t-35 174q-34 81-96 143t-143 96q-83 35-174 35t-174-35q-81-34-143-96T99 686q-35-83-35-174t35-174q34-81 96-143t143-96q83-35 174-35zm0-64Q373 0 255 68.5T68.5 255 0 512t68.5 257T255 955.5t257 68.5 257-68.5T955.5 769t68.5-257-68.5-257T769 68.5 512 0zM224 446q-13 0-22.5-9.5T192 414v-64q0-13 9.5-22.5T224 318t22.5 9.5T256 350v64q0 13-9.5 22.5T224 446zm575 0q-13 0-22.5-9.5T767 414v-64q0-13 9.5-22.5T799 318t22.5 9.5T831 350v64q0 13-9.5 22.5T799 446zM192 577zm640 0zm-320-65q-106 0-182 74-61 60-73 144-2 14 7.5 25t23.5 11q12 0 21-8t11-19q9-62 55-107 57-56 137-56t137 56q46 45 55 107 2 12 11 19.5t21 7.5q14 0 24-11t7-25q-12-83-73-144-76-74-182-74z"/></symbol>
    <symbol viewBox="0 0 1024 1024" id="si-ant-meh"><path d="M512 64q91 0 174 35 81 34 143 96t96 143q35 83 35 174t-35 174q-34 81-96 143t-143 96q-83 35-174 35t-174-35q-81-34-143-96T99 686q-35-83-35-174t35-174q34-81 96-143t143-96q83-35 174-35zm0-64Q373 0 255 68.5T68.5 255 0 512t68.5 257T255 955.5t257 68.5 257-68.5T955.5 769t68.5-257-68.5-257T769 68.5 512 0zM224 446q-13 0-22.5-9.5T192 414v-64q0-13 9.5-22.5T224 318t22.5 9.5T256 350v64q0 13-9.5 22.5T224 446zm575 0q-13 0-22.5-9.5T767 414v-64q0-13 9.5-22.5T799 318t22.5 9.5T831 350v64q0 13-9.5 22.5T799 446zM192 577zm640 0zm-96 63H288q-13 0-22.5-9t-9.5-23q0-13 9.5-22.5T288 576h448q14 0 23 9.5t9 22.5q0 14-9 23t-23 9z"/></symbol>
    <symbol viewBox="0 0 1024 1024" id="si-ant-smile"><path d="M512 64q91 0 174 35 81 34 143 96t96 143q35 83 35 174t-35 174q-34 81-96 143t-143 96q-83 35-174 35t-174-35q-81-34-143-96T99 686q-35-83-35-174t35-174q34-81 96-143t143-96q83-35 174-35zm0-64Q373 0 255 68.5T68.5 255 0 512t68.5 257T255 955.5t257 68.5 257-68.5T955.5 769t68.5-257-68.5-257T769 68.5 512 0zM224 446q-13 0-22.5-9.5T192 414v-64q0-13 9.5-22.5T224 318t22.5 9.5T256 350v64q0 13-9.5 22.5T224 446zm575 0q-13 0-22.5-9.5T767 414v-64q0-13 9.5-22.5T799 318t22.5 9.5T831 350v64q0 13-9.5 22.5T799 446zM192 577zm640 0zM512 766q-106 0-182-74-61-60-73-144-2-14 7.5-25t23.5-11q12 0 21 8t11 19q9 62 55 107 57 56 137 56t137-56q46-45 55-107 2-12 11-19.5t21-7.5q14 0 24 11t7 25q-12 83-73 144-76 74-182 74z"/></symbol>
    <symbol viewBox="0 0 1024 1024" id="si-ant-exclamation-circle-o"><path d="M512 704q-13 0-22.5-9.5T480 672V224q0-13 9.5-22.5T512 192t22.5 9.5T544 224v448q0 13-9.5 22.5T512 704zm0 128q-13 0-22.5-9.5T480 800t9.5-22.5T512 768t22.5 9.5T544 800t-9.5 22.5T512 832zm0-768q91 0 174 35 81 34 143 96t96 143q35 83 35 174t-35 174q-34 81-96 143t-143 96q-83 35-174 35t-174-35q-81-34-143-96T99 686q-35-83-35-174t35-174q34-81 96-143t143-96q83-35 174-35zm0-64Q373 0 255 68.5T68.5 255 0 512t68.5 257T255 955.5t257 68.5 257-68.5T955.5 769t68.5-257-68.5-257T769 68.5 512 0z"/></symbol>
    <symbol viewBox="0 0 1024 1024" id="si-ant-exclamation-circle"><path d="M512 0Q373 0 255 68.5T68.5 255 0 512t68.5 257T255 955.5t257 68.5 257-68.5T955.5 769t68.5-257-68.5-257T769 68.5 512 0zm32 800q0 13-9.5 22.5T512 832t-22.5-9.5T480 800t9.5-22.5T512 768t22.5 9.5T544 800zm0-128q0 13-9.5 22.5T512 704t-22.5-9.5T480 672V224q0-13 9.5-22.5T512 192t22.5 9.5T544 224v448z"/></symbol>

    <symbol viewBox="0 0 966 998" id="si-awesome-angle-double-right"><path d="M582 499q0 13-10 23L106 988q-10 10-23 10t-23-10l-50-50Q0 928 0 915t10-23l393-393L10 106Q0 96 0 83t10-23l50-50Q70 0 83 0t23 10l466 466q10 10 10 23zm384 0q0 13-10 23L490 988q-10 10-23 10t-23-10l-50-50q-10-10-10-23t10-23l393-393-393-393q-10-10-10-23t10-23l50-50q10-10 23-10t23 10l466 466q10 10 10 23z"/></symbol>
    <symbol viewBox="0 0 1664 1792" id="si-awesome-bell"><path d="M848 1696q0-16-16-16-59 0-101.5-42.5T688 1536q0-16-16-16t-16 16q0 73 51.5 124.5T832 1712q16 0 16-16zm816-288q0 52-38 90t-90 38h-448q0 106-75 181t-181 75-181-75-75-181H128q-52 0-90-38t-38-90q50-42 91-88t85-119.5 74.5-158.5 50-206T320 576q0-152 117-282.5T744 135q-8-19-8-39 0-40 28-68t68-28 68 28 28 68q0 20-8 39 190 28 307 158.5T1344 576q0 139 19.5 260t50 206 74.5 158.5 85 119.5 91 88z"/></symbol>
    <symbol viewBox="0 0 1536 1536" id="si-awesome-cog"><path d="M1024 768q0-106-75-181t-181-75-181 75-75 181 75 181 181 75 181-75 75-181zm512-109v222q0 12-8 23t-20 13l-185 28q-19 54-39 91 35 50 107 138 10 12 10 25t-9 23q-27 37-99 108t-94 71q-12 0-26-9l-138-108q-44 23-91 38-16 136-29 186-7 28-36 28H657q-14 0-24.5-8.5T621 1506l-28-184q-49-16-90-37l-141 107q-10 9-25 9-14 0-25-11-126-114-165-168-7-10-7-23 0-12 8-23 15-21 51-66.5t54-70.5q-27-50-41-99L29 913q-13-2-21-12.5T0 877V655q0-12 8-23t19-13l186-28q14-46 39-92-40-57-107-138-10-12-10-24 0-10 9-23 26-36 98.5-107.5T337 135q13 0 26 10l138 107q44-23 91-38 16-136 29-186 7-28 36-28h222q14 0 24.5 8.5T915 30l28 184q49 16 90 37l142-107q9-9 24-9 13 0 25 10 129 119 165 170 7 8 7 22 0 12-8 23-15 21-51 66.5t-54 70.5q26 50 41 98l183 28q13 2 21 12.5t8 23.5z"/></symbol>
    <symbol viewBox="0 0 1792 1408" id="si-awesome-envelope"><path d="M1792 454v794q0 66-47 113t-113 47H160q-66 0-113-47T0 1248V454q44 49 101 87 362 246 497 345 57 42 92.5 65.5t94.5 48 110 24.5h2q51 0 110-24.5t94.5-48T1194 886q170-123 498-345 57-39 100-87zm0-294q0 79-49 151t-122 123q-376 261-468 325-10 7-42.5 30.5t-54 38-52 32.5-57.5 27-50 9h-2q-23 0-50-9t-57.5-27-52-32.5-54-38T639 759q-91-64-262-182.5T172 434q-62-42-117-115.5T0 182q0-78 41.5-130T160 0h1472q65 0 112.5 47t47.5 113z"/></symbol>
    <symbol viewBox="0 0 1792 1408" id="si-awesome-list-ul"><path d="M384 1216q0 80-56 136t-136 56-136-56-56-136 56-136 136-56 136 56 56 136zm0-512q0 80-56 136t-136 56-136-56T0 704t56-136 136-56 136 56 56 136zm1408 416v192q0 13-9.5 22.5t-22.5 9.5H544q-13 0-22.5-9.5T512 1312v-192q0-13 9.5-22.5t22.5-9.5h1216q13 0 22.5 9.5t9.5 22.5zM384 192q0 80-56 136t-136 56-136-56T0 192 56 56 192 0t136 56 56 136zm1408 416v192q0 13-9.5 22.5T1760 832H544q-13 0-22.5-9.5T512 800V608q0-13 9.5-22.5T544 576h1216q13 0 22.5 9.5t9.5 22.5zm0-512v192q0 13-9.5 22.5T1760 320H544q-13 0-22.5-9.5T512 288V96q0-13 9.5-22.5T544 64h1216q13 0 22.5 9.5T1792 96z"/></symbol>
    <symbol viewBox="0 0 1408 1408" id="si-awesome-plus"><path d="M1408 608v192q0 40-28 68t-68 28H896v416q0 40-28 68t-68 28H608q-40 0-68-28t-28-68V896H96q-40 0-68-28T0 800V608q0-40 28-68t68-28h416V96q0-40 28-68t68-28h192q40 0 68 28t28 68v416h416q40 0 68 28t28 68z"/></symbol>
    <symbol viewBox="0 0 1536 1664" id="si-awesome-power-off"><path d="M1536 896q0 156-61 298t-164 245-245 164-298 61-298-61-245-164-164-245T0 896q0-182 80.5-343T307 283q43-32 95.5-25t83.5 50q32 42 24.5 94.5T461 487q-98 74-151.5 181T256 896q0 104 40.5 198.5T406 1258t163.5 109.5T768 1408t198.5-40.5T1130 1258t109.5-163.5T1280 896q0-121-53.5-228T1075 487q-42-32-49.5-84.5T1050 308q31-43 84-50t95 25q146 109 226.5 270t80.5 343zM896 128v640q0 52-38 90t-90 38-90-38-38-90V128q0-52 38-90t90-38 90 38 38 90z"/></symbol>
    <symbol viewBox="0 0 1408 1536" id="si-awesome-user"><path d="M1408 1277q0 120-73 189.5t-194 69.5H267q-121 0-194-69.5T0 1277q0-53 3.5-103.5t14-109T44 956t43-97.5 62-81 85.5-53.5T346 704q9 0 42 21.5t74.5 48 108 48T704 843t133.5-21.5 108-48 74.5-48 42-21.5q61 0 111.5 20t85.5 53.5 62 81 43 97.5 26.5 108.5 14 109 3.5 103.5zm-320-893q0 159-112.5 271.5T704 768 432.5 655.5 320 384t112.5-271.5T704 0t271.5 112.5T1088 384z"/></symbol>
  </defs>
</svg>
