<?xml version="1.0" encoding="utf-8"?>
<svg fill="orange" width="400" heigth="400" viewBox="0 0 400 400" xmlns="http://www.w3.org/2000/svg" xmlns:xlink="http://www.w3.org/1999/xlink" version="1.1">
  <path d="m361.723877,132.201141q-13.272278,-33.553734 -38.023438,-59.862892q-24.392487,-25.927868 -56.31781,-40.416988q-33.001556,-14.870399 -69.231476,-14.870399q-30.131836,0 -58.111404,10.294899q-13.989769,-6.863281 -30.669876,-12.01072t-29.773102,-7.053901t-25.647942,-3.24099t-18.294331,-0.953219t-7.891699,0q-7.532949,0.381289 -11.47879,6.86328t-1.076099,13.726479l31.207941,83.503075q-25.827282,44.992493 -25.827282,97.610779q0,38.510513 13.989769,73.589401q13.631073,33.553833 38.023544,59.862946q24.751129,25.927887 56.676529,40.417023q33.001526,14.870361 68.872742,14.870361q36.229919,0 69.231476,-14.870361q31.925323,-14.107788 56.31781,-40.417023q24.75116,-25.927856 38.023438,-59.862946q13.989807,-35.078888 13.989807,-73.589401t-13.989807,-73.589401zm-154.963638,36.222794q0,6.481979 -4.304565,11.05748t-10.402649,4.57547t-10.402634,-4.57547t-4.304581,-11.05748l0,-28.215652q0,-6.481964 4.304581,-11.057465t10.402634,-4.575539t10.402649,4.575539t4.304565,11.057465l0,28.215652zm85.37352,0q0,6.481979 -4.304626,11.05748t-10.402618,4.57547t-10.402649,-4.57547t-4.304504,-11.05748l0,-28.215652q0,-6.481964 4.304504,-11.057465t10.402649,-4.575539t10.402618,4.575539t4.304626,11.057465l0,28.215652z"/>
</svg>
